<?xml version="1.0" encoding="UTF-8" standalone="no"?> <svg id="Layer_1" data-name="Layer 1" xmlns="http://www.w3.org/2000/svg" viewBox="0 0 128 128"><defs><style>.cls-1{fill:#1d75b8;}.cls-2{fill:#2d3e50;}</style></defs><title>a</title><path class="cls-1" d="M88.17469,74.63468a42.81086,42.81086,0,0,0-9.73243-22.10025L77.03785,50.87V26.24376A9.64626,9.64626,0,0,0,75.85309,21.612h0L65.482,2.673a1.79839,1.79839,0,0,0-2.96481,0L52.14616,21.612h0a9.64626,9.64626,0,0,0-1.18476,4.63178V50.87L49.557,52.53443a42.81086,42.81086,0,0,0-9.73243,22.10025,1.62131,1.62131,0,0,0,2.64985,1.45352l8.487-7.12306v.23406H77.03785v-.23406l8.487,7.12306A1.62131,1.62131,0,0,0,88.17469,74.63468Z"/><path class="cls-1" d="M73.87681,73.53447v4.86275a.15158.15158,0,0,1-.1439.1439H66.31828V73.53447Z"/><path class="cls-1" d="M61.98347,73.53475v5.00665H54.56856a.15158.15158,0,0,1-.1439-.1439V73.53475Z"/><path class="cls-2" d="M115.115,22.52134H81.99765a15.16929,15.16929,0,0,1,.47062,3.7226V30.407h30.53508a1.84928,1.84928,0,0,1,1.59283,2.02118V94.88606H13.40382V32.42819A1.8408,1.8408,0,0,1,14.9906,30.407H45.53172V26.24395a15.16929,15.16929,0,0,1,.47062-3.7226H12.885a7.02182,7.02182,0,0,0-7.0229,7.0229v70.5909A7.027,7.027,0,0,0,12.885,107.146h35.03l-6.5402,16.70047a1.65973,1.65973,0,0,0,1.54455,2.26857H84.86956a1.66264,1.66264,0,0,0,1.55059-2.25049L80.08507,107.146h35.03a7.027,7.027,0,0,0,7.0229-7.01082V29.54424A7.02182,7.02182,0,0,0,115.115,22.52134Z"/></svg>