<?xml version="1.0" encoding="UTF-8" standalone="no"?> <svg height="512pt" viewBox="0 0 512 511" width="512pt" xmlns="http://www.w3.org/2000/svg"><path d="m305.351562 457.476562h-37.039062c-24.855469 0-45.003906 20.148438-45.003906 45.003907h127.046875c0-24.855469-20.148438-45.003907-45.003907-45.003907zm0 0" fill="#ade5ff"/><path d="m250 384.480469h49.832031v72.996093h-49.832031zm0 0" fill="#4dbaf6"/><path d="m431.59375 10.5h50.40625c11.046875 0 20 8.929688 20 19.941406v333.027344c0 11.011719-8.953125 19.941406-20 19.941406h-452c-11.046875 0-20-8.929687-20-19.941406v-333.027344c0-11.011718 8.953125-19.941406 20-19.941406zm0 0" fill="#fff"/><path d="m502 363.957031v-52.4375h-375.667969v52.4375c0 10.742188 8.710938 19.453125 19.457031 19.453125h336.753907c10.746093 0 19.457031-8.710937 19.457031-19.453125zm0 0" fill="#ade5ff"/><path d="m227.964844 79.628906c-12.433594.699219-28.246094 4.617188-41.273438 17.644532-15.898437 15.898437-18.332031 36.039062-17.882812 49.105468 12.507812-.761718 28.410156-4.738281 41.453125-17.78125 15.914062-15.914062 18.238281-35.980468 17.703125-48.96875zm0 0" fill="#a0e557"/><path d="m91.9375 65.085938c-.78125 12.898437 1.066406 33.949218 17.625 50.511718 11.335938 11.335938 24.832031 15.824219 36.382812 17.304688.695313-12.980469-1.28125-34.097656-17.808593-50.628906-11.3125-11.308594-24.722657-15.753907-36.199219-17.1875zm0 0" fill="#a0e557"/><path d="m364.503906 64.96875c-18.484375 10.222656-31.003906 29.914062-31.003906 52.53125 0 30.632812 22.964844 55.890625 52.613281 59.53125 18.484375-10.222656 31.003907-29.914062 31.003907-52.53125 0-30.632812-22.960938-55.886719-52.613282-59.53125zm0 0" fill="#ffc66c"/><path d="m357.117188 64.5v60h26.75v-53.703125c-8.054688-4.023437-17.132813-6.296875-26.75-6.296875zm0 0" fill="#fff"/><path d="m383.867188 70.796875v53.703125h33.25c0-23.523438-13.542969-43.871094-33.25-53.703125zm0 0" fill="#ff5d5d"/><path d="m256 357.449219c2.628906 0 5.210938-1.070313 7.070312-2.929688 1.859376-1.859375 2.929688-4.441406 2.929688-7.070312 0-2.628907-1.070312-5.210938-2.929688-7.070313-1.859374-1.859375-4.441406-2.929687-7.070312-2.929687s-5.210938 1.070312-7.070312 2.929687c-1.859376 1.859375-2.929688 4.441406-2.929688 7.070313 0 2.628906 1.070312 5.210937 2.929688 7.070312 1.859374 1.859375 4.441406 2.929688 7.070312 2.929688zm0 0"/><path d="m502 139.039062c-2.628906 0-5.210938 1.070313-7.070312 2.929688-1.859376 1.859375-2.929688 4.441406-2.929688 7.070312 0 2.632813 1.070312 5.210938 2.929688 7.070313 1.859374 1.859375 4.441406 2.929687 7.070312 2.929687s5.210938-1.070312 7.070312-2.929687c1.859376-1.859375 2.929688-4.4375 2.929688-7.070313 0-2.628906-1.070312-5.210937-2.929688-7.070312-1.859374-1.859375-4.441406-2.929688-7.070312-2.929688zm0 0"/><path d="m482 .5h-452c-16.542969 0-30 13.433594-30 29.941406v333.027344c0 16.507812 13.457031 29.941406 30 29.941406h172.167969v54.265625c-28.242188 2.285157-50.527344 25.984375-50.527344 54.800781 0 5.523438 4.476563 10 10 10h188.714844c5.523437 0 10-4.476562 10-10 0-28.816406-22.285157-52.515624-50.523438-54.800781v-54.265625h172.167969c16.542969 0 30-13.433594 30-29.941406v-172.632812c0-5.519532-4.476562-10-10-10s-10 4.480468-10 10v110.683593h-472v-271.078125c0-5.480468 4.484375-9.941406 10-9.941406h452c5.515625 0 10 4.460938 10 9.941406v67.023438c0 5.523437 4.476562 10 10 10s10-4.476563 10-10v-67.023438c0-16.507812-13.457031-29.941406-30-29.941406zm-143.101562 491.980469h-165.800782c4.3125-14.441407 17.71875-25.003907 33.546875-25.003907h98.707031c15.828126 0 29.234376 10.558594 33.546876 25.003907zm-116.730469-45.003907v-52.996093h67.664062v52.996093zm269.832031-125.957031v41.949219c0 5.480469-4.484375 9.941406-10 9.941406h-452c-5.515625 0-10-4.460937-10-9.941406v-41.949219zm0 0"/><path d="m234.210938 225.210938c5.523437 0 10-4.480469 10-10v-28.429688c0-5.519531-4.476563-10-10-10h-28.429688c-5.523438 0-10 4.480469-10 10 0 5.523438 4.476562 10 10 10h4.285156l-44.988281 44.988281-36.925781-36.921875c-3.90625-3.90625-10.238282-3.90625-14.140625 0l-57.082031 57.082032c-3.90625 3.902343-3.90625 10.234374 0 14.140624 1.953124 1.953126 4.511718 2.929688 7.070312 2.929688s5.117188-.976562 7.070312-2.929688l50.011719-50.011718 36.925781 36.925781c1.875 1.875 4.417969 2.929687 7.070313 2.929687s5.195313-1.054687 7.070313-2.929687l52.0625-52.058594v4.285157c0 5.523437 4.476562 10 10 10zm0 0"/><path d="m372.332031 225c0-5.523438-4.476562-10-10-10h-66.332031c-5.523438 0-10 4.476562-10 10s4.476562 10 10 10h66.332031c5.523438 0 10-4.476562 10-10zm0 0"/><path d="m448 215h-37c-5.523438 0-10 4.476562-10 10s4.476562 10 10 10h37c5.523438 0 10-4.476562 10-10s-4.476562-10-10-10zm0 0"/><path d="m288.929688 261.929688c-1.859376 1.859374-2.929688 4.441406-2.929688 7.070312s1.070312 5.210938 2.929688 7.070312c1.859374 1.859376 4.441406 2.929688 7.070312 2.929688s5.210938-1.070312 7.070312-2.929688c1.859376-1.859374 2.929688-4.441406 2.929688-7.070312s-1.070312-5.210938-2.929688-7.070312c-1.859374-1.859376-4.441406-2.929688-7.070312-2.929688s-5.210938 1.070312-7.070312 2.929688zm0 0"/><path d="m339 279h109c5.523438 0 10-4.476562 10-10s-4.476562-10-10-10h-109c-5.523438 0-10 4.476562-10 10s4.476562 10 10 10zm0 0"/><path d="m357.117188 194.5c38.601562 0 70-31.402344 70-70s-31.398438-70-70-70c-38.597657 0-70 31.402344-70 70s31.402343 70 70 70zm10-118.992188c19.566406 3.984376 35.007812 19.429688 38.996093 38.992188h-38.996093zm-20 0v48.992188c0 5.523438 4.480468 10 10 10h48.996093c-4.644531 22.796875-24.847656 40-48.996093 40-27.566407 0-50-22.429688-50-50 0-24.144531 17.207031-44.347656 40-48.992188zm0 0"/><path d="m146.007812 174c5.523438 0 10-4.476562 10-10v-7.8125c2.386719.210938 5.082032.355469 8.03125.355469 14.945313 0 36.097657-3.679688 53.296876-20.875 29.445312-29.449219 19.011718-70.207031 18.550781-71.929688-.921875-3.460937-3.625-6.164062-7.085938-7.085937-1.722656-.460938-42.484375-10.898438-71.933593 18.550781-4.464844 4.46875-8.015626 9.203125-10.832032 14.023437-2.8125-4.820312-6.363281-9.554687-10.832031-14.023437-29.445313-29.445313-70.207031-19.011719-71.929687-18.550781-3.460938.921875-6.164063 3.625-7.085938 7.085937-.457031 1.722657-10.894531 42.480469 18.554688 71.929688 17.195312 17.195312 38.347656 20.875 53.292968 20.875 2.925782 0 5.597656-.144531 7.972656-.351563v7.808594c0 5.523438 4.476563 10 10 10zm25.003907-84.652344c15.746093-15.746094 36.484375-15.648437 46.601562-14.425781 1.222657 10.136719 1.316407 30.867187-14.421875 46.601563-15.71875 15.722656-36.539062 15.789062-46.796875 14.640624-.15625-1.421874-.285156-3.054687-.359375-4.84375.054688-1.765624.0625-3.632812 0-5.59375.4375-10.816406 3.582032-24.984374 14.976563-36.378906zm-35.3125 46.8125c-10.25 1.15625-31.085938 1.09375-46.816407-14.636718-15.734374-15.734376-15.644531-36.460938-14.429687-46.585938 10.117187-1.191406 30.933594-1.269531 46.609375 14.410156 11.257812 11.257813 14.488281 25.128906 14.992188 35.863282-.058594 1.636718-.070313 3.210937-.046876 4.71875v2.625c-.078124 1.308593-.183593 2.519531-.308593 3.605468zm0 0"/></svg>